<svg xmlns="http://www.w3.org/2000/svg" width="1170" height="2532" viewBox="0 0 1170 2532">
  <rect width="100%" height="100%" fill="#f8f8f8" />

  <!-- Logo -->
  <g transform="translate(489, 1170) scale(0.375)">
    <rect width="512" height="512" fill="black" />
    <g fill="white">
      <!-- "7" -->
      <rect x="88" y="172" width="48" height="48" />
      <rect x="136" y="172" width="72" height="24" />
      <rect x="208" y="172" width="48" height="48" />
      <rect x="184" y="220" width="48" height="24" />
      <rect x="160" y="244" width="48" height="24" />
      <rect x="136" y="268" width="48" height="72" />
      <!-- "3" -->
      <rect x="280" y="172" width="144" height="24" />
      <rect x="352" y="196" width="48" height="24" />
      <rect x="328" y="220" width="48" height="24" />
      <rect x="304" y="244" width="96" height="24" />
      <rect x="376" y="268" width="48" height="48" />
      <rect x="256" y="292" width="48" height="24" />
      <rect x="280" y="316" width="120" height="24" />
    </g>
  </g>

  <!-- Creatures -->
  <g transform="translate(100, 300) rotate(25)">
    <rect x="-10" y="-10" width="20" height="20" fill="#0000ff" />
    <rect x="-10" y="-10" width="10" height="10" fill="#ffdd00" />
  </g>
  <g transform="translate(950, 330) rotate(145)">
    <rect x="-10" y="-10" width="20" height="20" fill="#0000ff" />
    <rect x="-10" y="-10" width="10" height="10" fill="#ffdd00" />
  </g>
  <g transform="translate(220, 720) rotate(75)">
    <rect x="-10" y="-10" width="20" height="20" fill="#0000ff" />
    <rect x="-10" y="-10" width="10" height="10" fill="#ffdd00" />
  </g>
  <g transform="translate(900, 1450) rotate(310)">
    <rect x="-10" y="-10" width="20" height="20" fill="#0000ff" />
    <rect x="-10" y="-10" width="10" height="10" fill="#ffdd00" />
  </g>
  <g transform="translate(380, 1900) rotate(135)">
    <rect x="-10" y="-10" width="20" height="20" fill="#0000ff" />
    <rect x="-10" y="-10" width="10" height="10" fill="#ffdd00" />
  </g>
  <!-- Cluster group -->
  <g transform="translate(680, 500) rotate(20)">
    <rect x="-10" y="-10" width="20" height="20" fill="#0000ff" />
    <rect x="-10" y="-10" width="10" height="10" fill="#ffdd00" />
  </g>
  <g transform="translate(720, 530) rotate(65)">
    <rect x="-10" y="-10" width="20" height="20" fill="#0000ff" />
    <rect x="-10" y="-10" width="10" height="10" fill="#ffdd00" />
  </g>
  <g transform="translate(705, 470) rotate(310)">
    <rect x="-10" y="-10" width="20" height="20" fill="#0000ff" />
    <rect x="-10" y="-10" width="10" height="10" fill="#ffdd00" />
  </g>
  <g transform="translate(180, 2100) rotate(250)">
    <rect x="-10" y="-10" width="20" height="20" fill="#0000ff" />
    <rect x="-10" y="-10" width="10" height="10" fill="#ffdd00" />
  </g>
  <g transform="translate(980, 2200) rotate(10)">
    <rect x="-10" y="-10" width="20" height="20" fill="#0000ff" />
    <rect x="-10" y="-10" width="10" height="10" fill="#ffdd00" />
  </g>
</svg>
